<svg width="16" height="18" viewBox="0 0 16 18" fill="none" xmlns="http://www.w3.org/2000/svg">
<path d="M9.75 7.22222L9.4875 13.4444M6.5125 13.4444L6.25 7.22222M2.75 3.66667L3.50234 15.131C3.57135 16.1824 4.44432 17 5.49805 17H10.5019C11.5557 17 12.4287 16.1824 12.4977 15.131L13.25 3.66667M2.75 3.66667H5.375M2.75 3.66667H1M13.25 3.66667H15M13.25 3.66667H10.625M10.625 3.66667V3C10.625 1.89543 9.72957 1 8.625 1H7.375C6.27043 1 5.375 1.89543 5.375 3V3.66667M10.625 3.66667H5.375" stroke="#3E4462" stroke-width="1.8" stroke-linecap="round" stroke-linejoin="round"/>
</svg>
